<?xml version="1.0" standalone="no"?>
<!DOCTYPE svg PUBLIC "-//W3C//DTD SVG 20010904//EN"
 "http://www.w3.org/TR/2001/REC-SVG-20010904/DTD/svg10.dtd">
<svg version="1.0" xmlns="http://www.w3.org/2000/svg"
 width="3462.000000pt" height="3462.000000pt" viewBox="0 0 3462.000000 3462.000000"
 preserveAspectRatio="xMidYMid meet">

<g transform="translate(0.000000,3462.000000) scale(0.100000,-0.100000)"
fill="#000000" stroke="none">
<path d="M19660 22029 c-653 -54 -1023 -122 -1480 -271 -690 -226 -1288 -577
-1731 -1018 -160 -159 -242 -257 -404 -485 -222 -311 -344 -536 -483 -885
-191 -480 -285 -867 -347 -1430 -22 -197 -31 -788 -16 -1033 33 -536 166
-1145 353 -1617 152 -384 430 -845 707 -1175 372 -440 898 -821 1477 -1069
363 -155 869 -303 1288 -378 l171 -30 514 -5 c956 -9 1351 24 1832 157 193 53
302 97 391 158 78 54 100 78 139 152 l24 45 3 555 c4 756 -8 928 -77 1040 -37
61 -119 126 -183 145 -112 33 -225 16 -503 -75 -157 -52 -278 -82 -472 -119
-232 -45 -374 -60 -702 -73 -670 -27 -1045 37 -1463 249 -229 116 -386 231
-560 411 -167 173 -244 285 -369 534 -131 262 -188 441 -268 843 -54 267 -61
354 -61 706 0 340 7 423 56 669 77 385 149 629 245 823 128 258 396 574 617
725 285 195 782 378 1134 417 210 23 846 40 986 25 290 -29 590 -116 879 -253
98 -47 207 -93 243 -102 133 -35 270 -1 359 86 124 122 141 234 141 939 0 516
-10 623 -71 759 -52 116 -138 196 -294 274 -432 215 -1415 360 -2075 306z"/>
<path d="M5570 21930 c-63 -4 -338 -13 -610 -19 -547 -13 -628 -19 -692 -50
-61 -29 -126 -96 -157 -161 l-26 -55 -6 -1145 c-10 -1856 -9 -6507 1 -7005 10
-493 17 -559 64 -639 30 -51 100 -118 153 -145 112 -56 287 -71 864 -71 688 0
813 18 938 135 137 128 145 209 139 1395 l-4 834 206 246 c113 135 665 792
1225 1460 561 668 1330 1584 1710 2035 1576 1870 2138 2554 2197 2673 27 55
32 75 32 145 1 74 -2 89 -32 149 -50 103 -127 158 -272 194 -70 18 -113 19
-665 16 -324 -2 -701 -7 -836 -10 l-245 -7 -60 -30 c-56 -29 -85 -62 -543
-610 -911 -1094 -1873 -2229 -2555 -3017 l-171 -198 -6 468 c-3 257 -7 899 -8
1427 -2 1062 -12 1528 -35 1647 -37 190 -136 296 -315 334 -70 15 -110 15
-291 4z"/>
<path d="M12764 21930 c-131 -9 -204 -41 -273 -116 -91 -100 -82 139 -98
-2389 -15 -2327 -11 -5424 7 -6052 11 -361 22 -452 68 -536 32 -60 79 -102
152 -136 l55 -26 655 0 c782 1 885 8 1021 76 69 34 132 103 159 175 20 54 20
68 20 2107 0 1129 -5 3078 -10 4332 -12 2484 -7 2329 -68 2417 -42 61 -69 83
-137 115 l-60 27 -355 7 c-449 9 -1005 8 -1136 -1z"/>
<path d="M23160 21934 c-60 -7 -153 -35 -211 -64 -67 -34 -122 -93 -158 -169
l-26 -56 -3 -2895 c-6 -5213 -3 -5578 33 -5755 27 -130 75 -206 167 -265 97
-63 107 -64 787 -56 811 10 909 14 982 48 103 47 168 131 188 244 7 38 12 401
13 1034 l3 975 -30 52 c-16 29 -163 202 -325 385 -162 183 -401 452 -530 598
l-234 265 834 3 c459 2 1444 0 2187 -4 l1353 -6 4 -32 c3 -17 10 -726 16
-1576 7 -850 15 -1588 19 -1641 9 -112 31 -167 94 -230 23 -23 67 -54 97 -68
l55 -26 805 0 805 0 56 26 c72 34 134 96 168 168 l26 56 3 4325 c2 3202 0
4341 -9 4385 -14 75 -37 120 -88 172 -50 53 -100 78 -177 92 -40 8 -331 12
-845 14 l-784 2 -54 -30 c-64 -35 -122 -104 -149 -177 -19 -52 -20 -95 -24
-1728 -2 -921 -7 -1681 -11 -1688 -7 -9 -349 -12 -1648 -12 l-1640 0 3 1673 3
1673 -37 75 c-54 109 -132 165 -271 196 -61 13 -176 16 -742 18 -368 1 -686 1
-705 -1z"/>
<path d="M8502 17266 c-29 -7 -78 -30 -107 -51 -135 -93 -812 -893 -953 -1126
-63 -104 -85 -172 -85 -265 0 -126 22 -165 382 -674 497 -704 1607 -2209 1722
-2334 57 -62 141 -110 232 -131 116 -27 338 -35 982 -35 871 0 942 8 1057 117
122 117 154 277 86 436 -40 94 -2803 3759 -2980 3952 -91 100 -216 141 -336
111z"/>
</g>
</svg>
